<?xml version="1.0" encoding="UTF-8" standalone="no"?><svg xmlns="http://www.w3.org/2000/svg" xmlns:xlink="http://www.w3.org/1999/xlink" contentScriptType="application/ecmascript" contentStyleType="text/css" height="867px" preserveAspectRatio="none" style="width:852px;height:867px;" version="1.1" viewBox="0 0 852 867" width="852px" zoomAndPan="magnify"><defs><filter height="300%" id="f1ijx6rmjc5ohx" width="300%" x="-1" y="-1"><feGaussianBlur result="blurOut" stdDeviation="2.0"/><feColorMatrix in="blurOut" result="blurOut2" type="matrix" values="0 0 0 0 0 0 0 0 0 0 0 0 0 0 0 0 0 0 .4 0"/><feOffset dx="4.0" dy="4.0" in="blurOut2" result="blurOut3"/><feBlend in="SourceGraphic" in2="blurOut3" mode="normal"/></filter></defs><g><!--cluster knesset--><polygon fill="#FFFFFF" filter="url(#f1ijx6rmjc5ohx)" points="156,471,218,471,225,493.4883,446,493.4883,446,855,156,855,156,471" style="stroke: #000000; stroke-width: 1.5;"/><line style="stroke: #000000; stroke-width: 1.5;" x1="156" x2="225" y1="493.4883" y2="493.4883"/><text fill="#000000" font-family="sans-serif" font-size="14" font-weight="bold" lengthAdjust="spacingAndGlyphs" textLength="56" x="160" y="486.5352">knesset</text><!--cluster campaigns--><polygon fill="#FFFFFF" filter="url(#f1ijx6rmjc5ohx)" points="14,198,97,198,104,220.4883,830,220.4883,830,424,14,424,14,198" style="stroke: #000000; stroke-width: 1.5;"/><line style="stroke: #000000; stroke-width: 1.5;" x1="14" x2="104" y1="220.4883" y2="220.4883"/><text fill="#000000" font-family="sans-serif" font-size="14" font-weight="bold" lengthAdjust="spacingAndGlyphs" textLength="77" x="18" y="213.5352">campaigns</text><!--cluster users--><polygon fill="#FFFFFF" filter="url(#f1ijx6rmjc5ohx)" points="134,16,179,16,186,38.4883,240,38.4883,240,151,134,151,134,16" style="stroke: #000000; stroke-width: 1.5;"/><line style="stroke: #000000; stroke-width: 1.5;" x1="134" x2="186" y1="38.4883" y2="38.4883"/><text fill="#000000" font-family="sans-serif" font-size="14" font-weight="bold" lengthAdjust="spacingAndGlyphs" textLength="39" x="138" y="31.5352">users</text><!--class KnessetMember--><rect fill="#FEFECE" filter="url(#f1ijx6rmjc5ohx)" height="151.6406" id="KnessetMember" style="stroke: #A80036; stroke-width: 1.5;" width="125" x="164.5" y="695"/><ellipse cx="179.5" cy="711" fill="#ADD1B2" rx="11" ry="11" style="stroke: #A80036; stroke-width: 1.0;"/><path d="M181.9731,717.1431 Q181.3921,717.4419 180.7529,717.5913 Q180.1138,717.7407 179.4082,717.7407 Q176.9014,717.7407 175.5815,716.0889 Q174.2617,714.437 174.2617,711.3159 Q174.2617,708.1865 175.5815,706.5347 Q176.9014,704.8828 179.4082,704.8828 Q180.1138,704.8828 180.7612,705.0322 Q181.4087,705.1816 181.9731,705.4805 L181.9731,708.2031 Q181.3423,707.6221 180.7488,707.3523 Q180.1553,707.0825 179.5244,707.0825 Q178.1797,707.0825 177.4949,708.1492 Q176.8101,709.2158 176.8101,711.3159 Q176.8101,713.4077 177.4949,714.4744 Q178.1797,715.541 179.5244,715.541 Q180.1553,715.541 180.7488,715.2712 Q181.3423,715.0015 181.9731,714.4204 Z "/><text fill="#000000" font-family="sans-serif" font-size="12" lengthAdjust="spacingAndGlyphs" textLength="93" x="193.5" y="715.5352">KnessetMember</text><line style="stroke: #A80036; stroke-width: 1.5;" x1="165.5" x2="288.5" y1="727" y2="727"/><text fill="#000000" font-family="sans-serif" font-size="11" lengthAdjust="spacingAndGlyphs" textLength="29" x="170.5" y="741.6348">name</text><text fill="#000000" font-family="sans-serif" font-size="11" lengthAdjust="spacingAndGlyphs" textLength="32" x="170.5" y="754.5898">image</text><text fill="#000000" font-family="sans-serif" font-size="11" lengthAdjust="spacingAndGlyphs" textLength="65" x="170.5" y="767.5449">imageCredit</text><text fill="#000000" font-family="sans-serif" font-size="11" lengthAdjust="spacingAndGlyphs" textLength="88" x="170.5" y="780.5">knessetWebPage</text><text fill="#000000" font-family="sans-serif" font-size="11" lengthAdjust="spacingAndGlyphs" textLength="38" x="170.5" y="793.4551">gender</text><text fill="#000000" font-family="sans-serif" font-size="11" lengthAdjust="spacingAndGlyphs" textLength="28" x="170.5" y="806.4102">party</text><text fill="#000000" font-family="sans-serif" font-size="11" lengthAdjust="spacingAndGlyphs" textLength="83" x="170.5" y="819.3652">contactOptions</text><text fill="#000000" font-family="sans-serif" font-size="11" lengthAdjust="spacingAndGlyphs" textLength="42" x="170.5" y="832.3203">isActive</text><line style="stroke: #A80036; stroke-width: 1.5;" x1="165.5" x2="288.5" y1="838.6406" y2="838.6406"/><!--class ContactOption--><rect fill="#FEFECE" filter="url(#f1ijx6rmjc5ohx)" height="99.8203" id="ContactOption" style="stroke: #A80036; stroke-width: 1.5;" width="113" x="324.5" y="721"/><ellipse cx="339.5" cy="737" fill="#ADD1B2" rx="11" ry="11" style="stroke: #A80036; stroke-width: 1.0;"/><path d="M341.9731,743.1431 Q341.3921,743.4419 340.7529,743.5913 Q340.1138,743.7407 339.4082,743.7407 Q336.9014,743.7407 335.5815,742.0889 Q334.2617,740.437 334.2617,737.3159 Q334.2617,734.1865 335.5815,732.5347 Q336.9014,730.8828 339.4082,730.8828 Q340.1138,730.8828 340.7612,731.0322 Q341.4087,731.1816 341.9731,731.4805 L341.9731,734.2031 Q341.3423,733.6221 340.7488,733.3523 Q340.1553,733.0825 339.5244,733.0825 Q338.1797,733.0825 337.4949,734.1492 Q336.8101,735.2158 336.8101,737.3159 Q336.8101,739.4077 337.4949,740.4744 Q338.1797,741.541 339.5244,741.541 Q340.1553,741.541 340.7488,741.2712 Q341.3423,741.0015 341.9731,740.4204 Z "/><text fill="#000000" font-family="sans-serif" font-size="12" lengthAdjust="spacingAndGlyphs" textLength="81" x="353.5" y="741.5352">ContactOption</text><line style="stroke: #A80036; stroke-width: 1.5;" x1="325.5" x2="436.5" y1="753" y2="753"/><text fill="#000000" font-family="sans-serif" font-size="11" lengthAdjust="spacingAndGlyphs" textLength="46" x="330.5" y="767.6348">platform</text><text fill="#000000" font-family="sans-serif" font-size="11" lengthAdjust="spacingAndGlyphs" textLength="20" x="330.5" y="780.5898">title</text><text fill="#000000" font-family="sans-serif" font-size="11" lengthAdjust="spacingAndGlyphs" textLength="35" x="330.5" y="793.5449">details</text><text fill="#000000" font-family="sans-serif" font-size="11" lengthAdjust="spacingAndGlyphs" textLength="24" x="330.5" y="806.5">note</text><line style="stroke: #A80036; stroke-width: 1.5;" x1="325.5" x2="436.5" y1="812.8203" y2="812.8203"/><!--class Party--><rect fill="#FEFECE" filter="url(#f1ijx6rmjc5ohx)" height="73.9102" id="Party" style="stroke: #A80036; stroke-width: 1.5;" width="95" x="164.5" y="498"/><ellipse cx="194.8" cy="514" fill="#ADD1B2" rx="11" ry="11" style="stroke: #A80036; stroke-width: 1.0;"/><path d="M197.2731,520.1431 Q196.6921,520.4419 196.0529,520.5913 Q195.4138,520.7407 194.7082,520.7407 Q192.2014,520.7407 190.8815,519.0889 Q189.5617,517.437 189.5617,514.3159 Q189.5617,511.1865 190.8815,509.5347 Q192.2014,507.8828 194.7082,507.8828 Q195.4138,507.8828 196.0612,508.0322 Q196.7087,508.1816 197.2731,508.4805 L197.2731,511.2031 Q196.6423,510.6221 196.0488,510.3523 Q195.4553,510.0825 194.8244,510.0825 Q193.4797,510.0825 192.7949,511.1492 Q192.1101,512.2158 192.1101,514.3159 Q192.1101,516.4077 192.7949,517.4744 Q193.4797,518.541 194.8244,518.541 Q195.4553,518.541 196.0488,518.2712 Q196.6423,518.0015 197.2731,517.4204 Z "/><text fill="#000000" font-family="sans-serif" font-size="12" lengthAdjust="spacingAndGlyphs" textLength="29" x="212.2" y="518.5352">Party</text><line style="stroke: #A80036; stroke-width: 1.5;" x1="165.5" x2="258.5" y1="530" y2="530"/><text fill="#000000" font-family="sans-serif" font-size="11" lengthAdjust="spacingAndGlyphs" textLength="29" x="170.5" y="544.6348">name</text><text fill="#000000" font-family="sans-serif" font-size="11" lengthAdjust="spacingAndGlyphs" textLength="83" x="170.5" y="557.5898">officialWebPage</text><line style="stroke: #A80036; stroke-width: 1.5;" x1="165.5" x2="258.5" y1="563.9102" y2="563.9102"/><!--class MKGroup--><rect fill="#FEFECE" filter="url(#f1ijx6rmjc5ohx)" height="60.9551" id="MKGroup" style="stroke: #A80036; stroke-width: 1.5;" width="86" x="295" y="504.5"/><ellipse cx="310" cy="520.5" fill="#ADD1B2" rx="11" ry="11" style="stroke: #A80036; stroke-width: 1.0;"/><path d="M312.4731,526.6431 Q311.8921,526.9419 311.2529,527.0913 Q310.6138,527.2407 309.9082,527.2407 Q307.4014,527.2407 306.0815,525.5889 Q304.7617,523.937 304.7617,520.8159 Q304.7617,517.6865 306.0815,516.0347 Q307.4014,514.3828 309.9082,514.3828 Q310.6138,514.3828 311.2612,514.5322 Q311.9087,514.6816 312.4731,514.9805 L312.4731,517.7031 Q311.8423,517.1221 311.2488,516.8523 Q310.6553,516.5825 310.0244,516.5825 Q308.6797,516.5825 307.9949,517.6492 Q307.3101,518.7158 307.3101,520.8159 Q307.3101,522.9077 307.9949,523.9744 Q308.6797,525.041 310.0244,525.041 Q310.6553,525.041 311.2488,524.7712 Q311.8423,524.5015 312.4731,523.9204 Z "/><text fill="#000000" font-family="sans-serif" font-size="12" lengthAdjust="spacingAndGlyphs" textLength="54" x="324" y="525.0352">MKGroup</text><line style="stroke: #A80036; stroke-width: 1.5;" x1="296" x2="380" y1="536.5" y2="536.5"/><text fill="#000000" font-family="sans-serif" font-size="11" lengthAdjust="spacingAndGlyphs" textLength="29" x="301" y="551.1348">name</text><line style="stroke: #A80036; stroke-width: 1.5;" x1="296" x2="380" y1="557.4551" y2="557.4551"/><!--class Campaign--><rect fill="#FEFECE" filter="url(#f1ijx6rmjc5ohx)" height="190.5059" id="Campaign" style="stroke: #A80036; stroke-width: 1.5;" width="330" x="22" y="225"/><ellipse cx="153.75" cy="241" fill="#ADD1B2" rx="11" ry="11" style="stroke: #A80036; stroke-width: 1.0;"/><path d="M156.2231,247.1431 Q155.6421,247.4419 155.0029,247.5913 Q154.3638,247.7407 153.6582,247.7407 Q151.1514,247.7407 149.8315,246.0889 Q148.5117,244.437 148.5117,241.3159 Q148.5117,238.1865 149.8315,236.5347 Q151.1514,234.8828 153.6582,234.8828 Q154.3638,234.8828 155.0112,235.0322 Q155.6587,235.1816 156.2231,235.4805 L156.2231,238.2031 Q155.5923,237.6221 154.9988,237.3523 Q154.4053,237.0825 153.7744,237.0825 Q152.4297,237.0825 151.7449,238.1492 Q151.0601,239.2158 151.0601,241.3159 Q151.0601,243.4077 151.7449,244.4744 Q152.4297,245.541 153.7744,245.541 Q154.4053,245.541 154.9988,245.2712 Q155.5923,245.0015 156.2231,244.4204 Z "/><text fill="#000000" font-family="sans-serif" font-size="12" lengthAdjust="spacingAndGlyphs" textLength="58" x="174.25" y="245.5352">Campaign</text><line style="stroke: #A80036; stroke-width: 1.5;" x1="23" x2="351" y1="257" y2="257"/><text fill="#000000" font-family="sans-serif" font-size="11" lengthAdjust="spacingAndGlyphs" textLength="20" x="28" y="271.6348">title</text><text fill="#000000" font-family="sans-serif" font-size="11" lengthAdjust="spacingAndGlyphs" textLength="40" x="28" y="284.5898">subtitle</text><text fill="#000000" font-family="sans-serif" font-size="11" lengthAdjust="spacingAndGlyphs" textLength="36" x="28" y="297.5449">slogan</text><text fill="#000000" font-family="sans-serif" font-size="11" lengthAdjust="spacingAndGlyphs" textLength="83" x="28" y="310.5">officialWebPage</text><text fill="#000000" font-family="sans-serif" font-size="11" lengthAdjust="spacingAndGlyphs" textLength="113" x="28" y="323.4551">socialMediaAccounts</text><text fill="#000000" font-family="sans-serif" font-size="11" lengthAdjust="spacingAndGlyphs" textLength="97" x="28" y="336.4102">backgroundImage</text><text fill="#000000" font-family="sans-serif" font-size="11" lengthAdjust="spacingAndGlyphs" textLength="57" x="28" y="349.3652">themeData</text><text fill="#000000" font-family="sans-serif" font-size="11" lengthAdjust="spacingAndGlyphs" textLength="318" x="28" y="362.3203">cannedMessage:Map&lt;[Position,Gender,Platform] → String&gt;</text><text fill="#000000" font-family="sans-serif" font-size="11" lengthAdjust="spacingAndGlyphs" textLength="283" x="28" y="375.2754">labelText:Map&lt;[Position,Location,Gender] → String&gt;</text><text fill="#000000" font-family="sans-serif" font-size="11" lengthAdjust="spacingAndGlyphs" textLength="83" x="28" y="388.2305">relevantGroups</text><text fill="#000000" font-family="sans-serif" font-size="11" lengthAdjust="spacingAndGlyphs" textLength="68" x="28" y="401.1855">contactEmail</text><line style="stroke: #A80036; stroke-width: 1.5;" x1="23" x2="351" y1="407.5059" y2="407.5059"/><!--class Position--><rect fill="#FEFECE" filter="url(#f1ijx6rmjc5ohx)" height="60.9551" id="Position" style="stroke: #A80036; stroke-width: 1.5;" width="185" x="516.5" y="290"/><ellipse cx="582.75" cy="306" fill="#EB937F" rx="11" ry="11" style="stroke: #A80036; stroke-width: 1.0;"/><path d="M586.3643,312.5 L578.6445,312.5 L578.6445,300.1069 L586.3643,300.1069 L586.3643,302.2651 L581.0933,302.2651 L581.0933,304.938 L585.8662,304.938 L585.8662,307.0962 L581.0933,307.0962 L581.0933,310.3418 L586.3643,310.3418 Z "/><text fill="#000000" font-family="sans-serif" font-size="12" lengthAdjust="spacingAndGlyphs" textLength="44" x="603.25" y="310.5352">Position</text><line style="stroke: #A80036; stroke-width: 1.5;" x1="517.5" x2="700.5" y1="322" y2="322"/><text fill="#000000" font-family="sans-serif" font-size="11" lengthAdjust="spacingAndGlyphs" textLength="173" x="522.5" y="336.6348">Against, Undecided, Neutral, For</text><line style="stroke: #A80036; stroke-width: 1.5;" x1="517.5" x2="700.5" y1="342.9551" y2="342.9551"/><!--class MKPosition--><rect fill="#FEFECE" filter="url(#f1ijx6rmjc5ohx)" height="86.8652" id="MKPosition" style="stroke: #A80036; stroke-width: 1.5;" width="94" x="387" y="277"/><ellipse cx="402" cy="293" fill="#ADD1B2" rx="11" ry="11" style="stroke: #A80036; stroke-width: 1.0;"/><path d="M404.4731,299.1431 Q403.8921,299.4419 403.2529,299.5913 Q402.6138,299.7407 401.9082,299.7407 Q399.4014,299.7407 398.0815,298.0889 Q396.7617,296.437 396.7617,293.3159 Q396.7617,290.1865 398.0815,288.5347 Q399.4014,286.8828 401.9082,286.8828 Q402.6138,286.8828 403.2612,287.0322 Q403.9087,287.1816 404.4731,287.4805 L404.4731,290.2031 Q403.8423,289.6221 403.2488,289.3523 Q402.6553,289.0825 402.0244,289.0825 Q400.6797,289.0825 399.9949,290.1492 Q399.3101,291.2158 399.3101,293.3159 Q399.3101,295.4077 399.9949,296.4744 Q400.6797,297.541 402.0244,297.541 Q402.6553,297.541 403.2488,297.2712 Q403.8423,297.0015 404.4731,296.4204 Z "/><text fill="#000000" font-family="sans-serif" font-size="12" lengthAdjust="spacingAndGlyphs" textLength="62" x="416" y="297.5352">MKPosition</text><line style="stroke: #A80036; stroke-width: 1.5;" x1="388" x2="480" y1="309" y2="309"/><text fill="#000000" font-family="sans-serif" font-size="11" lengthAdjust="spacingAndGlyphs" textLength="16" x="393" y="323.6348">mk</text><text fill="#000000" font-family="sans-serif" font-size="11" lengthAdjust="spacingAndGlyphs" textLength="44" x="393" y="336.5898">position</text><text fill="#000000" font-family="sans-serif" font-size="11" lengthAdjust="spacingAndGlyphs" textLength="59" x="393" y="349.5449">campgaign</text><line style="stroke: #A80036; stroke-width: 1.5;" x1="388" x2="480" y1="355.8652" y2="355.8652"/><!--class MKAction--><rect fill="#FEFECE" filter="url(#f1ijx6rmjc5ohx)" height="112.7754" id="MKAction" style="stroke: #A80036; stroke-width: 1.5;" width="85" x="736.5" y="264"/><ellipse cx="751.5" cy="280" fill="#ADD1B2" rx="11" ry="11" style="stroke: #A80036; stroke-width: 1.0;"/><path d="M753.9731,286.1431 Q753.3921,286.4419 752.7529,286.5913 Q752.1138,286.7407 751.4082,286.7407 Q748.9014,286.7407 747.5815,285.0889 Q746.2617,283.437 746.2617,280.3159 Q746.2617,277.1865 747.5815,275.5347 Q748.9014,273.8828 751.4082,273.8828 Q752.1138,273.8828 752.7612,274.0322 Q753.4087,274.1816 753.9731,274.4805 L753.9731,277.2031 Q753.3423,276.6221 752.7488,276.3523 Q752.1553,276.0825 751.5244,276.0825 Q750.1797,276.0825 749.4949,277.1492 Q748.8101,278.2158 748.8101,280.3159 Q748.8101,282.4077 749.4949,283.4744 Q750.1797,284.541 751.5244,284.541 Q752.1553,284.541 752.7488,284.2712 Q753.3423,284.0015 753.9731,283.4204 Z "/><text fill="#000000" font-family="sans-serif" font-size="12" lengthAdjust="spacingAndGlyphs" textLength="53" x="765.5" y="284.5352">MKAction</text><line style="stroke: #A80036; stroke-width: 1.5;" x1="737.5" x2="820.5" y1="296" y2="296"/><text fill="#000000" font-family="sans-serif" font-size="11" lengthAdjust="spacingAndGlyphs" textLength="23" x="742.5" y="310.6348">type</text><text fill="#000000" font-family="sans-serif" font-size="11" lengthAdjust="spacingAndGlyphs" textLength="23" x="742.5" y="323.5898">date</text><text fill="#000000" font-family="sans-serif" font-size="11" lengthAdjust="spacingAndGlyphs" textLength="20" x="742.5" y="336.5449">title</text><text fill="#000000" font-family="sans-serif" font-size="11" lengthAdjust="spacingAndGlyphs" textLength="35" x="742.5" y="349.5">details</text><text fill="#000000" font-family="sans-serif" font-size="11" lengthAdjust="spacingAndGlyphs" textLength="19" x="742.5" y="362.4551">link</text><line style="stroke: #A80036; stroke-width: 1.5;" x1="737.5" x2="820.5" y1="368.7754" y2="368.7754"/><!--class User--><rect fill="#FEFECE" filter="url(#f1ijx6rmjc5ohx)" height="99.8203" id="User" style="stroke: #A80036; stroke-width: 1.5;" width="90" x="142" y="43"/><ellipse cx="171.4" cy="59" fill="#ADD1B2" rx="11" ry="11" style="stroke: #A80036; stroke-width: 1.0;"/><path d="M173.8731,65.1431 Q173.2921,65.4419 172.6529,65.5913 Q172.0138,65.7407 171.3082,65.7407 Q168.8014,65.7407 167.4815,64.0889 Q166.1617,62.437 166.1617,59.3159 Q166.1617,56.1865 167.4815,54.5347 Q168.8014,52.8828 171.3082,52.8828 Q172.0138,52.8828 172.6612,53.0322 Q173.3087,53.1816 173.8731,53.4805 L173.8731,56.2031 Q173.2423,55.6221 172.6488,55.3523 Q172.0553,55.0825 171.4244,55.0825 Q170.0797,55.0825 169.3949,56.1492 Q168.7101,57.2158 168.7101,59.3159 Q168.7101,61.4077 169.3949,62.4744 Q170.0797,63.541 171.4244,63.541 Q172.0553,63.541 172.6488,63.2712 Q173.2423,63.0015 173.8731,62.4204 Z "/><text fill="#000000" font-family="sans-serif" font-size="12" lengthAdjust="spacingAndGlyphs" textLength="26" x="188.6" y="63.5352">User</text><line style="stroke: #A80036; stroke-width: 1.5;" x1="143" x2="231" y1="75" y2="75"/><text fill="#000000" font-family="sans-serif" font-size="11" lengthAdjust="spacingAndGlyphs" textLength="53" x="148" y="89.6348">username</text><text fill="#000000" font-family="sans-serif" font-size="11" lengthAdjust="spacingAndGlyphs" textLength="78" x="148" y="102.5898">hashedPasswd</text><text fill="#000000" font-family="sans-serif" font-size="11" lengthAdjust="spacingAndGlyphs" textLength="29" x="148" y="115.5449">name</text><text fill="#000000" font-family="sans-serif" font-size="11" lengthAdjust="spacingAndGlyphs" textLength="21" x="148" y="128.5">role</text><line style="stroke: #A80036; stroke-width: 1.5;" x1="143" x2="231" y1="134.8203" y2="134.8203"/><!--link KnessetMember to ContactOption--><path d="M302.8255,771 C309.9533,771 317.081,771 324.2087,771 " fill="none" id="KnessetMember-ContactOption" style="stroke: #A80036; stroke-width: 1.0;"/><polygon fill="#A80036" points="289.5625,771,295.5625,775,301.5625,771,295.5625,767,289.5625,771" style="stroke: #A80036; stroke-width: 1.0;"/><text fill="#000000" font-family="sans-serif" font-size="13" lengthAdjust="spacingAndGlyphs" textLength="8" x="297.6748" y="767.6951">1</text><text fill="#000000" font-family="sans-serif" font-size="13" lengthAdjust="spacingAndGlyphs" textLength="22" x="294.3703" y="767.7295">0..*</text><!--link Party to KnessetMember--><path d="M215.2117,585.5303 C217.229,617.2701 219.8698,658.8184 222.1405,694.5431 " fill="none" id="Party-KnessetMember" style="stroke: #A80036; stroke-width: 1.0;"/><polygon fill="#A80036" points="214.3603,572.1346,210.749,578.3763,215.1216,584.1104,218.7329,577.8688,214.3603,572.1346" style="stroke: #A80036; stroke-width: 1.0;"/><text fill="#000000" font-family="sans-serif" font-size="13" lengthAdjust="spacingAndGlyphs" textLength="8" x="206.0785" y="592.4089">1</text><text fill="#000000" font-family="sans-serif" font-size="13" lengthAdjust="spacingAndGlyphs" textLength="22" x="198.6289" y="684.1412">1..*</text><!--link MKGroup to KnessetMember--><path d="M317.9327,577.6655 C302.5916,610.2828 281.0428,656.0982 262.7728,694.9426 " fill="none" id="MKGroup-KnessetMember" style="stroke: #A80036; stroke-width: 1.0;"/><polygon fill="#FFFFFF" points="323.4887,565.8529,317.3154,569.5799,318.3814,576.7118,324.5546,572.9848,323.4887,565.8529" style="stroke: #A80036; stroke-width: 1.0;"/><text fill="#000000" font-family="sans-serif" font-size="13" lengthAdjust="spacingAndGlyphs" textLength="22" x="296.4662" y="586.007">0..*</text><text fill="#000000" font-family="sans-serif" font-size="13" lengthAdjust="spacingAndGlyphs" textLength="22" x="243.2114" y="684.3188">0..*</text><!--link Party to MKGroup--><path d="M259.7422,535 C264.7774,535 269.8126,535 274.8478,535 " fill="none" id="Party-MKGroup" style="stroke: #A80036; stroke-width: 1.0;"/><polygon fill="none" points="274.8971,527.9999,294.8971,535,274.897,541.9999,274.8971,527.9999" style="stroke: #A80036; stroke-width: 1.0;"/><!--link MKPosition to Position--><path d="M481.168,320.5 C492.8193,320.5 504.4707,320.5 516.122,320.5 " fill="none" id="MKPosition-Position" style="stroke: #A80036; stroke-width: 1.0;"/><ellipse cx="494.4411" cy="312.3781" fill="#000000" rx="2.5" ry="2.5" style="stroke: #000000; stroke-width: 0.0;"/><text fill="#000000" font-family="sans-serif" font-size="13" lengthAdjust="spacingAndGlyphs" textLength="16" x="499.9411" y="317.1359">..0</text><text fill="#000000" font-family="sans-serif" font-size="13" lengthAdjust="spacingAndGlyphs" textLength="8" x="500.402" y="317.4849">1</text><!--link User to Campaign--><path d="M187,143.2075 C187,167.1534 187,196.631 187,224.6267 " fill="none" id="User-Campaign" style="stroke: #A80036; stroke-width: 1.0;"/><text fill="#000000" font-family="sans-serif" font-size="13" lengthAdjust="spacingAndGlyphs" textLength="74" x="188" y="186.5684">participates</text><text fill="#000000" font-family="sans-serif" font-size="13" lengthAdjust="spacingAndGlyphs" textLength="22" x="163.5219" y="163.5632">0..*</text><ellipse cx="164.4664" cy="209.5535" fill="#000000" rx="2.5" ry="2.5" style="stroke: #000000; stroke-width: 0.0;"/><text fill="#000000" font-family="sans-serif" font-size="13" lengthAdjust="spacingAndGlyphs" textLength="16" x="169.9664" y="214.3113">..0</text><!--link MKPosition to KnessetMember--><path d="M435.2762,364.3857 C435.156,416.2722 429.7535,504.1416 399,572 C385.4751,601.8429 333.0683,660.7575 289.6195,706.7746 " fill="none" id="MKPosition-KnessetMember" style="stroke: #A80036; stroke-width: 1.0;"/><text fill="#000000" font-family="sans-serif" font-size="13" lengthAdjust="spacingAndGlyphs" textLength="8" x="426.8761" y="384.534">1</text><text fill="#000000" font-family="sans-serif" font-size="13" lengthAdjust="spacingAndGlyphs" textLength="8" x="297.3224" y="696.0884">1</text><!--link MKAction to KnessetMember--><path d="M752.3666,377.1984 C743.1763,393.3874 731.8989,410.3277 719,424 C585.6004,565.398 517.0453,559.146 354,665 C333.2148,678.4944 326.5173,679.7291 307,695 C301.2667,699.4859 295.4728,704.3146 289.7625,709.2855 " fill="none" id="MKAction-KnessetMember" style="stroke: #A80036; stroke-width: 1.0;"/><text fill="#000000" font-family="sans-serif" font-size="13" lengthAdjust="spacingAndGlyphs" textLength="8" x="740.8246" y="397.2206">1</text><text fill="#000000" font-family="sans-serif" font-size="13" lengthAdjust="spacingAndGlyphs" textLength="8" x="297.4819" y="715.624">1</text><!--link Campaign to MKAction--><path d="M303.4245,217.3385 C329.4616,199.7342 358.1218,184.0629 387.5,174.5 C453.8511,152.902 639.1422,143.188 701.5,174.5 C735.6084,191.627 755.1943,230.3652 766.1411,263.6365 " fill="none" id="Campaign-MKAction" style="stroke: #A80036; stroke-width: 1.0;"/><polygon fill="#A80036" points="292.432,224.9894,299.6417,224.8449,302.2812,218.1343,295.0716,218.2788,292.432,224.9894" style="stroke: #A80036; stroke-width: 1.0;"/><text fill="#000000" font-family="sans-serif" font-size="13" lengthAdjust="spacingAndGlyphs" textLength="6" x="758.2083" y="253.3932">*</text><!--link Campaign to MKPosition--><path d="M365.6376,320.5 C372.7137,320.5 379.7898,320.5 386.8659,320.5 " fill="none" id="Campaign-MKPosition" style="stroke: #A80036; stroke-width: 1.0;"/><polygon fill="#A80036" points="352.4707,320.5,358.4707,324.5,364.4707,320.5,358.4707,316.5,352.4707,320.5" style="stroke: #A80036; stroke-width: 1.0;"/><text fill="#000000" font-family="sans-serif" font-size="13" lengthAdjust="spacingAndGlyphs" textLength="6" x="372.8758" y="316.9085">*</text><!--link Campaign to MKGroup--><path d="M261.9463,426.9635 C281.855,455.2444 301.8151,483.5982 316.2888,504.1586 " fill="none" id="Campaign-MKGroup" style="stroke: #A80036; stroke-width: 1.0;"/><polygon fill="#A80036" points="254.3302,416.1445,254.5132,423.3533,261.2379,425.957,261.0548,418.7482,254.3302,416.1445" style="stroke: #A80036; stroke-width: 1.0;"/><text fill="#000000" font-family="sans-serif" font-size="13" lengthAdjust="spacingAndGlyphs" textLength="95" x="285" y="459.5684">relevantGroups</text><text fill="#000000" font-family="sans-serif" font-size="13" lengthAdjust="spacingAndGlyphs" textLength="6" x="305.1921" y="493.8557">*</text><!--
@startuml

package knesset {

  class KnessetMember {
    name
    image
    imageCredit
    knessetWebPage
    gender
    party
    contactOptions
    isActive
  }

  class ContactOption {
    platform
    title
    details
    note
  }

  class Party {
    name
    officialWebPage
  }

  class MKGroup {
    name
  }

  KnessetMember "1" *- "0..*" ContactOption
  Party "1" *- "1..*" KnessetMember
  MKGroup "0..*" o- - "0..*" KnessetMember
  Party -|> MKGroup
}

package campaigns {
  class Campaign {
    title
    subtitle
    slogan
    officialWebPage
    socialMediaAccounts
    backgroundImage
    themeData
    cannedMessage:Map<[Position,Gender,Platform] → String>
    labelText:Map<[Position,Location,Gender] → String>
    relevantGroups
    contactEmail
  }

  enum Position {
    Against, Undecided, Neutral, For
  }

  class MKPosition {
    mk
    position
    campgaign
  }

  class MKAction {
    type
    date
    title
    details
    link
  }

  MKPosition "*..0" - "1" Position
}

package users {
  class User {
    username
    hashedPasswd
    name
    role
  }
}

User "0..*" - - "*..0" Campaign: participates
MKPosition "1" - - "1" KnessetMember
MKAction "1" - - "1" KnessetMember

Campaign *- "*" MKAction
Campaign *- "*" MKPosition
Campaign *- - "*" MKGroup: relevantGroups
@enduml

PlantUML version 1.2018.10(Sat Aug 25 20:02:59 IDT 2018)
(GPL source distribution)
Java Runtime: OpenJDK Runtime Environment
JVM: OpenJDK 64-Bit Server VM
Java Version: 11+28
Operating System: Mac OS X
OS Version: 10.14
Default Encoding: UTF-8
Language: en
Country: IL
--></g></svg>