<?xml version="1.0" encoding="UTF-8" standalone="no"?><svg xmlns="http://www.w3.org/2000/svg" xmlns:xlink="http://www.w3.org/1999/xlink" contentScriptType="application/ecmascript" contentStyleType="text/css" height="997px" preserveAspectRatio="none" style="width:801px;height:997px;" version="1.1" viewBox="0 0 801 997" width="801px" zoomAndPan="magnify"><defs><filter height="300%" id="fu8sydleclwo7" width="300%" x="-1" y="-1"><feGaussianBlur result="blurOut" stdDeviation="2.0"/><feColorMatrix in="blurOut" result="blurOut2" type="matrix" values="0 0 0 0 0 0 0 0 0 0 0 0 0 0 0 0 0 0 .4 0"/><feOffset dx="4.0" dy="4.0" in="blurOut2" result="blurOut3"/><feBlend in="SourceGraphic" in2="blurOut3" mode="normal"/></filter></defs><g><!--cluster knesset--><polygon fill="#FFFFFF" filter="url(#fu8sydleclwo7)" points="489,541,551,541,558,563.4883,779,563.4883,779,985,489,985,489,541" style="stroke: #000000; stroke-width: 1.5;"/><line style="stroke: #000000; stroke-width: 1.5;" x1="489" x2="558" y1="563.4883" y2="563.4883"/><text fill="#000000" font-family="sans-serif" font-size="14" font-weight="bold" lengthAdjust="spacingAndGlyphs" textLength="56" x="493" y="556.5352">knesset</text><!--cluster campaigns--><polygon fill="#FFFFFF" filter="url(#fu8sydleclwo7)" points="14,198,97,198,104,220.4883,481,220.4883,481,772,14,772,14,198" style="stroke: #000000; stroke-width: 1.5;"/><line style="stroke: #000000; stroke-width: 1.5;" x1="14" x2="104" y1="220.4883" y2="220.4883"/><text fill="#000000" font-family="sans-serif" font-size="14" font-weight="bold" lengthAdjust="spacingAndGlyphs" textLength="77" x="18" y="213.5352">campaigns</text><!--cluster users--><polygon fill="#FFFFFF" filter="url(#fu8sydleclwo7)" points="134,16,179,16,186,38.4883,240,38.4883,240,151,134,151,134,16" style="stroke: #000000; stroke-width: 1.5;"/><line style="stroke: #000000; stroke-width: 1.5;" x1="134" x2="186" y1="38.4883" y2="38.4883"/><text fill="#000000" font-family="sans-serif" font-size="14" font-weight="bold" lengthAdjust="spacingAndGlyphs" textLength="39" x="138" y="31.5352">users</text><!--class KnessetMember--><rect fill="#FEFECE" filter="url(#fu8sydleclwo7)" height="151.6406" id="KnessetMember" style="stroke: #A80036; stroke-width: 1.5;" width="125" x="497.5" y="825"/><ellipse cx="512.5" cy="841" fill="#ADD1B2" rx="11" ry="11" style="stroke: #A80036; stroke-width: 1.0;"/><path d="M514.9731,847.1431 Q514.3921,847.4419 513.7529,847.5913 Q513.1138,847.7407 512.4082,847.7407 Q509.9014,847.7407 508.5815,846.0889 Q507.2617,844.437 507.2617,841.3159 Q507.2617,838.1865 508.5815,836.5347 Q509.9014,834.8828 512.4082,834.8828 Q513.1138,834.8828 513.7612,835.0322 Q514.4087,835.1816 514.9731,835.4805 L514.9731,838.2031 Q514.3423,837.6221 513.7488,837.3523 Q513.1553,837.0825 512.5244,837.0825 Q511.1797,837.0825 510.4949,838.1492 Q509.8101,839.2158 509.8101,841.3159 Q509.8101,843.4077 510.4949,844.4744 Q511.1797,845.541 512.5244,845.541 Q513.1553,845.541 513.7488,845.2712 Q514.3423,845.0015 514.9731,844.4204 Z "/><text fill="#000000" font-family="sans-serif" font-size="12" lengthAdjust="spacingAndGlyphs" textLength="93" x="526.5" y="845.5352">KnessetMember</text><line style="stroke: #A80036; stroke-width: 1.5;" x1="498.5" x2="621.5" y1="857" y2="857"/><text fill="#000000" font-family="sans-serif" font-size="11" lengthAdjust="spacingAndGlyphs" textLength="29" x="503.5" y="871.6348">name</text><text fill="#000000" font-family="sans-serif" font-size="11" lengthAdjust="spacingAndGlyphs" textLength="32" x="503.5" y="884.5898">image</text><text fill="#000000" font-family="sans-serif" font-size="11" lengthAdjust="spacingAndGlyphs" textLength="65" x="503.5" y="897.5449">imageCredit</text><text fill="#000000" font-family="sans-serif" font-size="11" lengthAdjust="spacingAndGlyphs" textLength="88" x="503.5" y="910.5">knessetWebPage</text><text fill="#000000" font-family="sans-serif" font-size="11" lengthAdjust="spacingAndGlyphs" textLength="38" x="503.5" y="923.4551">gender</text><text fill="#000000" font-family="sans-serif" font-size="11" lengthAdjust="spacingAndGlyphs" textLength="28" x="503.5" y="936.4102">party</text><text fill="#000000" font-family="sans-serif" font-size="11" lengthAdjust="spacingAndGlyphs" textLength="83" x="503.5" y="949.3652">contactOptions</text><text fill="#000000" font-family="sans-serif" font-size="11" lengthAdjust="spacingAndGlyphs" textLength="42" x="503.5" y="962.3203">isActive</text><line style="stroke: #A80036; stroke-width: 1.5;" x1="498.5" x2="621.5" y1="968.6406" y2="968.6406"/><!--class ContactOption--><rect fill="#FEFECE" filter="url(#fu8sydleclwo7)" height="99.8203" id="ContactOption" style="stroke: #A80036; stroke-width: 1.5;" width="113" x="657.5" y="851"/><ellipse cx="672.5" cy="867" fill="#ADD1B2" rx="11" ry="11" style="stroke: #A80036; stroke-width: 1.0;"/><path d="M674.9731,873.1431 Q674.3921,873.4419 673.7529,873.5913 Q673.1138,873.7407 672.4082,873.7407 Q669.9014,873.7407 668.5815,872.0889 Q667.2617,870.437 667.2617,867.3159 Q667.2617,864.1865 668.5815,862.5347 Q669.9014,860.8828 672.4082,860.8828 Q673.1138,860.8828 673.7612,861.0322 Q674.4087,861.1816 674.9731,861.4805 L674.9731,864.2031 Q674.3423,863.6221 673.7488,863.3523 Q673.1553,863.0825 672.5244,863.0825 Q671.1797,863.0825 670.4949,864.1492 Q669.8101,865.2158 669.8101,867.3159 Q669.8101,869.4077 670.4949,870.4744 Q671.1797,871.541 672.5244,871.541 Q673.1553,871.541 673.7488,871.2712 Q674.3423,871.0015 674.9731,870.4204 Z "/><text fill="#000000" font-family="sans-serif" font-size="12" lengthAdjust="spacingAndGlyphs" textLength="81" x="686.5" y="871.5352">ContactOption</text><line style="stroke: #A80036; stroke-width: 1.5;" x1="658.5" x2="769.5" y1="883" y2="883"/><text fill="#000000" font-family="sans-serif" font-size="11" lengthAdjust="spacingAndGlyphs" textLength="46" x="663.5" y="897.6348">platform</text><text fill="#000000" font-family="sans-serif" font-size="11" lengthAdjust="spacingAndGlyphs" textLength="20" x="663.5" y="910.5898">title</text><text fill="#000000" font-family="sans-serif" font-size="11" lengthAdjust="spacingAndGlyphs" textLength="35" x="663.5" y="923.5449">details</text><text fill="#000000" font-family="sans-serif" font-size="11" lengthAdjust="spacingAndGlyphs" textLength="24" x="663.5" y="936.5">note</text><line style="stroke: #A80036; stroke-width: 1.5;" x1="658.5" x2="769.5" y1="942.8203" y2="942.8203"/><!--class Party--><rect fill="#FEFECE" filter="url(#fu8sydleclwo7)" height="73.9102" id="Party" style="stroke: #A80036; stroke-width: 1.5;" width="95" x="497.5" y="568"/><ellipse cx="527.8" cy="584" fill="#ADD1B2" rx="11" ry="11" style="stroke: #A80036; stroke-width: 1.0;"/><path d="M530.2731,590.1431 Q529.6921,590.4419 529.0529,590.5913 Q528.4138,590.7407 527.7082,590.7407 Q525.2014,590.7407 523.8815,589.0889 Q522.5617,587.437 522.5617,584.3159 Q522.5617,581.1865 523.8815,579.5347 Q525.2014,577.8828 527.7082,577.8828 Q528.4138,577.8828 529.0612,578.0322 Q529.7087,578.1816 530.2731,578.4805 L530.2731,581.2031 Q529.6423,580.6221 529.0488,580.3523 Q528.4553,580.0825 527.8244,580.0825 Q526.4797,580.0825 525.7949,581.1492 Q525.1101,582.2158 525.1101,584.3159 Q525.1101,586.4077 525.7949,587.4744 Q526.4797,588.541 527.8244,588.541 Q528.4553,588.541 529.0488,588.2712 Q529.6423,588.0015 530.2731,587.4204 Z "/><text fill="#000000" font-family="sans-serif" font-size="12" lengthAdjust="spacingAndGlyphs" textLength="29" x="545.2" y="588.5352">Party</text><line style="stroke: #A80036; stroke-width: 1.5;" x1="498.5" x2="591.5" y1="600" y2="600"/><text fill="#000000" font-family="sans-serif" font-size="11" lengthAdjust="spacingAndGlyphs" textLength="29" x="503.5" y="614.6348">name</text><text fill="#000000" font-family="sans-serif" font-size="11" lengthAdjust="spacingAndGlyphs" textLength="83" x="503.5" y="627.5898">officialWebPage</text><line style="stroke: #A80036; stroke-width: 1.5;" x1="498.5" x2="591.5" y1="633.9102" y2="633.9102"/><!--class MKGroup--><rect fill="#FEFECE" filter="url(#fu8sydleclwo7)" height="60.9551" id="MKGroup" style="stroke: #A80036; stroke-width: 1.5;" width="86" x="628" y="574.5"/><ellipse cx="643" cy="590.5" fill="#ADD1B2" rx="11" ry="11" style="stroke: #A80036; stroke-width: 1.0;"/><path d="M645.4731,596.6431 Q644.8921,596.9419 644.2529,597.0913 Q643.6138,597.2407 642.9082,597.2407 Q640.4014,597.2407 639.0815,595.5889 Q637.7617,593.937 637.7617,590.8159 Q637.7617,587.6865 639.0815,586.0347 Q640.4014,584.3828 642.9082,584.3828 Q643.6138,584.3828 644.2612,584.5322 Q644.9087,584.6816 645.4731,584.9805 L645.4731,587.7031 Q644.8423,587.1221 644.2488,586.8523 Q643.6553,586.5825 643.0244,586.5825 Q641.6797,586.5825 640.9949,587.6492 Q640.3101,588.7158 640.3101,590.8159 Q640.3101,592.9077 640.9949,593.9744 Q641.6797,595.041 643.0244,595.041 Q643.6553,595.041 644.2488,594.7712 Q644.8423,594.5015 645.4731,593.9204 Z "/><text fill="#000000" font-family="sans-serif" font-size="12" lengthAdjust="spacingAndGlyphs" textLength="54" x="657" y="595.0352">MKGroup</text><line style="stroke: #A80036; stroke-width: 1.5;" x1="629" x2="713" y1="606.5" y2="606.5"/><text fill="#000000" font-family="sans-serif" font-size="11" lengthAdjust="spacingAndGlyphs" textLength="29" x="634" y="621.1348">name</text><line style="stroke: #A80036; stroke-width: 1.5;" x1="629" x2="713" y1="627.4551" y2="627.4551"/><!--class Campaign--><rect fill="#FEFECE" filter="url(#fu8sydleclwo7)" height="190.5059" id="Campaign" style="stroke: #A80036; stroke-width: 1.5;" width="330" x="22" y="225"/><ellipse cx="153.75" cy="241" fill="#ADD1B2" rx="11" ry="11" style="stroke: #A80036; stroke-width: 1.0;"/><path d="M156.2231,247.1431 Q155.6421,247.4419 155.0029,247.5913 Q154.3638,247.7407 153.6582,247.7407 Q151.1514,247.7407 149.8315,246.0889 Q148.5117,244.437 148.5117,241.3159 Q148.5117,238.1865 149.8315,236.5347 Q151.1514,234.8828 153.6582,234.8828 Q154.3638,234.8828 155.0112,235.0322 Q155.6587,235.1816 156.2231,235.4805 L156.2231,238.2031 Q155.5923,237.6221 154.9988,237.3523 Q154.4053,237.0825 153.7744,237.0825 Q152.4297,237.0825 151.7449,238.1492 Q151.0601,239.2158 151.0601,241.3159 Q151.0601,243.4077 151.7449,244.4744 Q152.4297,245.541 153.7744,245.541 Q154.4053,245.541 154.9988,245.2712 Q155.5923,245.0015 156.2231,244.4204 Z "/><text fill="#000000" font-family="sans-serif" font-size="12" lengthAdjust="spacingAndGlyphs" textLength="58" x="174.25" y="245.5352">Campaign</text><line style="stroke: #A80036; stroke-width: 1.5;" x1="23" x2="351" y1="257" y2="257"/><text fill="#000000" font-family="sans-serif" font-size="11" lengthAdjust="spacingAndGlyphs" textLength="20" x="28" y="271.6348">title</text><text fill="#000000" font-family="sans-serif" font-size="11" lengthAdjust="spacingAndGlyphs" textLength="40" x="28" y="284.5898">subtitle</text><text fill="#000000" font-family="sans-serif" font-size="11" lengthAdjust="spacingAndGlyphs" textLength="36" x="28" y="297.5449">slogan</text><text fill="#000000" font-family="sans-serif" font-size="11" lengthAdjust="spacingAndGlyphs" textLength="83" x="28" y="310.5">officialWebPage</text><text fill="#000000" font-family="sans-serif" font-size="11" lengthAdjust="spacingAndGlyphs" textLength="113" x="28" y="323.4551">socialMediaAccounts</text><text fill="#000000" font-family="sans-serif" font-size="11" lengthAdjust="spacingAndGlyphs" textLength="97" x="28" y="336.4102">backgroundImage</text><text fill="#000000" font-family="sans-serif" font-size="11" lengthAdjust="spacingAndGlyphs" textLength="57" x="28" y="349.3652">themeData</text><text fill="#000000" font-family="sans-serif" font-size="11" lengthAdjust="spacingAndGlyphs" textLength="318" x="28" y="362.3203">cannedMessage:Map&lt;[Position,Gender,Platform] → String&gt;</text><text fill="#000000" font-family="sans-serif" font-size="11" lengthAdjust="spacingAndGlyphs" textLength="283" x="28" y="375.2754">labelText:Map&lt;[Position,Location,Gender] → String&gt;</text><text fill="#000000" font-family="sans-serif" font-size="11" lengthAdjust="spacingAndGlyphs" textLength="83" x="28" y="388.2305">relevantGroups</text><text fill="#000000" font-family="sans-serif" font-size="11" lengthAdjust="spacingAndGlyphs" textLength="68" x="28" y="401.1855">contactEmail</text><line style="stroke: #A80036; stroke-width: 1.5;" x1="23" x2="351" y1="407.5059" y2="407.5059"/><!--class Position--><rect fill="#FEFECE" filter="url(#fu8sydleclwo7)" height="60.9551" id="Position" style="stroke: #A80036; stroke-width: 1.5;" width="185" x="287.5" y="703"/><ellipse cx="353.75" cy="719" fill="#EB937F" rx="11" ry="11" style="stroke: #A80036; stroke-width: 1.0;"/><path d="M357.3643,725.5 L349.6445,725.5 L349.6445,713.1069 L357.3643,713.1069 L357.3643,715.2651 L352.0933,715.2651 L352.0933,717.938 L356.8662,717.938 L356.8662,720.0962 L352.0933,720.0962 L352.0933,723.3418 L357.3643,723.3418 Z "/><text fill="#000000" font-family="sans-serif" font-size="12" lengthAdjust="spacingAndGlyphs" textLength="44" x="374.25" y="723.5352">Position</text><line style="stroke: #A80036; stroke-width: 1.5;" x1="288.5" x2="471.5" y1="735" y2="735"/><text fill="#000000" font-family="sans-serif" font-size="11" lengthAdjust="spacingAndGlyphs" textLength="173" x="293.5" y="749.6348">Against, Undecided, Neutral, For</text><line style="stroke: #A80036; stroke-width: 1.5;" x1="288.5" x2="471.5" y1="755.9551" y2="755.9551"/><!--class MKPosition--><rect fill="#FEFECE" filter="url(#fu8sydleclwo7)" height="86.8652" id="MKPosition" style="stroke: #A80036; stroke-width: 1.5;" width="94" x="187" y="446"/><ellipse cx="202" cy="462" fill="#ADD1B2" rx="11" ry="11" style="stroke: #A80036; stroke-width: 1.0;"/><path d="M204.4731,468.1431 Q203.8921,468.4419 203.2529,468.5913 Q202.6138,468.7407 201.9082,468.7407 Q199.4014,468.7407 198.0815,467.0889 Q196.7617,465.437 196.7617,462.3159 Q196.7617,459.1865 198.0815,457.5347 Q199.4014,455.8828 201.9082,455.8828 Q202.6138,455.8828 203.2612,456.0322 Q203.9087,456.1816 204.4731,456.4805 L204.4731,459.2031 Q203.8423,458.6221 203.2488,458.3523 Q202.6553,458.0825 202.0244,458.0825 Q200.6797,458.0825 199.9949,459.1492 Q199.3101,460.2158 199.3101,462.3159 Q199.3101,464.4077 199.9949,465.4744 Q200.6797,466.541 202.0244,466.541 Q202.6553,466.541 203.2488,466.2712 Q203.8423,466.0015 204.4731,465.4204 Z "/><text fill="#000000" font-family="sans-serif" font-size="12" lengthAdjust="spacingAndGlyphs" textLength="62" x="216" y="466.5352">MKPosition</text><line style="stroke: #A80036; stroke-width: 1.5;" x1="188" x2="280" y1="478" y2="478"/><text fill="#000000" font-family="sans-serif" font-size="11" lengthAdjust="spacingAndGlyphs" textLength="16" x="193" y="492.6348">mk</text><text fill="#000000" font-family="sans-serif" font-size="11" lengthAdjust="spacingAndGlyphs" textLength="44" x="193" y="505.5898">position</text><text fill="#000000" font-family="sans-serif" font-size="11" lengthAdjust="spacingAndGlyphs" textLength="52" x="193" y="518.5449">campaign</text><line style="stroke: #A80036; stroke-width: 1.5;" x1="188" x2="280" y1="524.8652" y2="524.8652"/><!--class MKAction--><rect fill="#FEFECE" filter="url(#fu8sydleclwo7)" height="112.7754" id="MKAction" style="stroke: #A80036; stroke-width: 1.5;" width="85" x="387.5" y="264"/><ellipse cx="402.5" cy="280" fill="#ADD1B2" rx="11" ry="11" style="stroke: #A80036; stroke-width: 1.0;"/><path d="M404.9731,286.1431 Q404.3921,286.4419 403.7529,286.5913 Q403.1138,286.7407 402.4082,286.7407 Q399.9014,286.7407 398.5815,285.0889 Q397.2617,283.437 397.2617,280.3159 Q397.2617,277.1865 398.5815,275.5347 Q399.9014,273.8828 402.4082,273.8828 Q403.1138,273.8828 403.7612,274.0322 Q404.4087,274.1816 404.9731,274.4805 L404.9731,277.2031 Q404.3423,276.6221 403.7488,276.3523 Q403.1553,276.0825 402.5244,276.0825 Q401.1797,276.0825 400.4949,277.1492 Q399.8101,278.2158 399.8101,280.3159 Q399.8101,282.4077 400.4949,283.4744 Q401.1797,284.541 402.5244,284.541 Q403.1553,284.541 403.7488,284.2712 Q404.3423,284.0015 404.9731,283.4204 Z "/><text fill="#000000" font-family="sans-serif" font-size="12" lengthAdjust="spacingAndGlyphs" textLength="53" x="416.5" y="284.5352">MKAction</text><line style="stroke: #A80036; stroke-width: 1.5;" x1="388.5" x2="471.5" y1="296" y2="296"/><text fill="#000000" font-family="sans-serif" font-size="11" lengthAdjust="spacingAndGlyphs" textLength="23" x="393.5" y="310.6348">type</text><text fill="#000000" font-family="sans-serif" font-size="11" lengthAdjust="spacingAndGlyphs" textLength="23" x="393.5" y="323.5898">date</text><text fill="#000000" font-family="sans-serif" font-size="11" lengthAdjust="spacingAndGlyphs" textLength="20" x="393.5" y="336.5449">title</text><text fill="#000000" font-family="sans-serif" font-size="11" lengthAdjust="spacingAndGlyphs" textLength="35" x="393.5" y="349.5">details</text><text fill="#000000" font-family="sans-serif" font-size="11" lengthAdjust="spacingAndGlyphs" textLength="19" x="393.5" y="362.4551">link</text><line style="stroke: #A80036; stroke-width: 1.5;" x1="388.5" x2="471.5" y1="368.7754" y2="368.7754"/><!--class User--><rect fill="#FEFECE" filter="url(#fu8sydleclwo7)" height="99.8203" id="User" style="stroke: #A80036; stroke-width: 1.5;" width="90" x="142" y="43"/><ellipse cx="171.4" cy="59" fill="#ADD1B2" rx="11" ry="11" style="stroke: #A80036; stroke-width: 1.0;"/><path d="M173.8731,65.1431 Q173.2921,65.4419 172.6529,65.5913 Q172.0138,65.7407 171.3082,65.7407 Q168.8014,65.7407 167.4815,64.0889 Q166.1617,62.437 166.1617,59.3159 Q166.1617,56.1865 167.4815,54.5347 Q168.8014,52.8828 171.3082,52.8828 Q172.0138,52.8828 172.6612,53.0322 Q173.3087,53.1816 173.8731,53.4805 L173.8731,56.2031 Q173.2423,55.6221 172.6488,55.3523 Q172.0553,55.0825 171.4244,55.0825 Q170.0797,55.0825 169.3949,56.1492 Q168.7101,57.2158 168.7101,59.3159 Q168.7101,61.4077 169.3949,62.4744 Q170.0797,63.541 171.4244,63.541 Q172.0553,63.541 172.6488,63.2712 Q173.2423,63.0015 173.8731,62.4204 Z "/><text fill="#000000" font-family="sans-serif" font-size="12" lengthAdjust="spacingAndGlyphs" textLength="26" x="188.6" y="63.5352">User</text><line style="stroke: #A80036; stroke-width: 1.5;" x1="143" x2="231" y1="75" y2="75"/><text fill="#000000" font-family="sans-serif" font-size="11" lengthAdjust="spacingAndGlyphs" textLength="53" x="148" y="89.6348">username</text><text fill="#000000" font-family="sans-serif" font-size="11" lengthAdjust="spacingAndGlyphs" textLength="78" x="148" y="102.5898">hashedPasswd</text><text fill="#000000" font-family="sans-serif" font-size="11" lengthAdjust="spacingAndGlyphs" textLength="29" x="148" y="115.5449">name</text><text fill="#000000" font-family="sans-serif" font-size="11" lengthAdjust="spacingAndGlyphs" textLength="21" x="148" y="128.5">role</text><line style="stroke: #A80036; stroke-width: 1.5;" x1="143" x2="231" y1="134.8203" y2="134.8203"/><!--link KnessetMember to ContactOption--><path d="M635.8255,901 C642.9533,901 650.081,901 657.2087,901 " fill="none" id="KnessetMember-ContactOption" style="stroke: #A80036; stroke-width: 1.0;"/><polygon fill="#A80036" points="622.5625,901,628.5625,905,634.5625,901,628.5625,897,622.5625,901" style="stroke: #A80036; stroke-width: 1.0;"/><text fill="#000000" font-family="sans-serif" font-size="13" lengthAdjust="spacingAndGlyphs" textLength="8" x="630.6748" y="897.6951">1</text><text fill="#000000" font-family="sans-serif" font-size="13" lengthAdjust="spacingAndGlyphs" textLength="22" x="627.3703" y="897.7295">0..*</text><!--link Party to KnessetMember--><path d="M547.5453,655.2282 C549.8995,701.684 553.4323,771.3968 556.1347,824.7242 " fill="none" id="Party-KnessetMember" style="stroke: #A80036; stroke-width: 1.0;"/><polygon fill="#A80036" points="546.8846,642.1889,543.1934,648.3837,547.492,654.1735,551.1832,647.9787,546.8846,642.1889" style="stroke: #A80036; stroke-width: 1.0;"/><text fill="#000000" font-family="sans-serif" font-size="13" lengthAdjust="spacingAndGlyphs" textLength="8" x="538.521" y="662.4726">1</text><text fill="#000000" font-family="sans-serif" font-size="13" lengthAdjust="spacingAndGlyphs" textLength="22" x="532.7179" y="814.3396">1..*</text><!--link MKGroup to KnessetMember--><path d="M654.9438,647.8165 C637.5998,694.0672 609.6199,768.6804 588.5177,824.9529 " fill="none" id="MKGroup-KnessetMember" style="stroke: #A80036; stroke-width: 1.0;"/><polygon fill="#FFFFFF" points="659.5391,635.5623,653.6871,639.7758,655.3256,646.7983,661.1777,642.5848,659.5391,635.5623" style="stroke: #A80036; stroke-width: 1.0;"/><text fill="#000000" font-family="sans-serif" font-size="13" lengthAdjust="spacingAndGlyphs" textLength="22" x="632.9065" y="656.0177">0..*</text><text fill="#000000" font-family="sans-serif" font-size="13" lengthAdjust="spacingAndGlyphs" textLength="22" x="568.2421" y="814.3301">0..*</text><!--link Party to MKGroup--><path d="M592.7422,605 C597.7774,605 602.8126,605 607.8478,605 " fill="none" id="Party-MKGroup" style="stroke: #A80036; stroke-width: 1.0;"/><polygon fill="none" points="607.8971,597.9999,627.8971,605,607.897,611.9999,607.8971,597.9999" style="stroke: #A80036; stroke-width: 1.0;"/><!--link MKPosition to Position--><path d="M260.1019,533.1223 C289.3834,582.0585 336.1229,660.1712 361.7386,702.981 " fill="none" id="MKPosition-Position" style="stroke: #A80036; stroke-width: 1.0;"/><ellipse cx="240.5316" cy="548.795" fill="#000000" rx="2.5" ry="2.5" style="stroke: #000000; stroke-width: 0.0;"/><text fill="#000000" font-family="sans-serif" font-size="13" lengthAdjust="spacingAndGlyphs" textLength="16" x="246.0316" y="553.5529">..0</text><text fill="#000000" font-family="sans-serif" font-size="13" lengthAdjust="spacingAndGlyphs" textLength="8" x="348.8689" y="692.2716">1</text><!--link User to Campaign--><path d="M187,143.2075 C187,167.1534 187,196.631 187,224.6267 " fill="none" id="User-Campaign" style="stroke: #A80036; stroke-width: 1.0;"/><text fill="#000000" font-family="sans-serif" font-size="13" lengthAdjust="spacingAndGlyphs" textLength="74" x="188" y="186.5684">participates</text><text fill="#000000" font-family="sans-serif" font-size="13" lengthAdjust="spacingAndGlyphs" textLength="22" x="163.5219" y="163.5632">0..*</text><ellipse cx="164.4664" cy="209.5535" fill="#000000" rx="2.5" ry="2.5" style="stroke: #000000; stroke-width: 0.0;"/><text fill="#000000" font-family="sans-serif" font-size="13" lengthAdjust="spacingAndGlyphs" textLength="16" x="169.9664" y="214.3113">..0</text><!--link MKPosition to KnessetMember--><path d="M227.3051,533.0348 C220.573,593.0033 217.6258,701.5826 270,772 C324.4257,845.1756 429.6839,877.6519 497.3029,891.4687 " fill="none" id="MKPosition-KnessetMember" style="stroke: #A80036; stroke-width: 1.0;"/><text fill="#000000" font-family="sans-serif" font-size="13" lengthAdjust="spacingAndGlyphs" textLength="8" x="217.6674" y="553.452">1</text><ellipse cx="467.9451" cy="882.5574" fill="#000000" rx="2.5" ry="2.5" style="stroke: #000000; stroke-width: 0.0;"/><text fill="#000000" font-family="sans-serif" font-size="13" lengthAdjust="spacingAndGlyphs" textLength="16" x="473.4451" y="887.3152">..0</text><!--link MKAction to KnessetMember--><path d="M472.563,328.6472 C532.5715,342.3425 641.5651,375.6836 703,446 C732.0455,479.2445 725.4842,497.3378 732,541 C738.6255,585.3972 744.9698,599.0256 732,642 C712.0218,708.1964 668.9699,772.9961 630.9385,821.2219 " fill="none" id="MKAction-KnessetMember" style="stroke: #A80036; stroke-width: 1.0;"/><polygon fill="#A80036" points="622.659,831.564,629.5314,829.38,630.1586,822.1962,623.2862,824.3802,622.659,831.564" style="stroke: #A80036; stroke-width: 1.0;"/><text fill="#000000" font-family="sans-serif" font-size="13" lengthAdjust="spacingAndGlyphs" textLength="22" x="480.4301" y="326.3499">0..*</text><text fill="#000000" font-family="sans-serif" font-size="13" lengthAdjust="spacingAndGlyphs" textLength="8" x="630.3664" y="820.2754">1</text><!--link MKAction to Position--><path d="M423.1526,377.0599 C412.6789,463.572 392.9829,626.2612 384.2989,697.9911 " fill="none" id="MKAction-Position" style="stroke: #A80036; stroke-width: 1.0;"/><polygon fill="#A80036" points="383.693,702.9962,388.7458,694.5423,384.294,698.0325,380.8038,693.5807,383.693,702.9962" style="stroke: #A80036; stroke-width: 1.0;"/><text fill="#000000" font-family="sans-serif" font-size="13" lengthAdjust="spacingAndGlyphs" textLength="22" x="398.9774" y="397.4682">0..*</text><text fill="#000000" font-family="sans-serif" font-size="13" lengthAdjust="spacingAndGlyphs" textLength="8" x="375.6258" y="692.2901">1</text><!--link Campaign to MKAction--><path d="M365.3901,320.5 C372.7379,320.5 380.0857,320.5 387.4335,320.5 " fill="none" id="Campaign-MKAction" style="stroke: #A80036; stroke-width: 1.0;"/><polygon fill="#A80036" points="352.1641,320.5,358.1641,324.5,364.1641,320.5,358.1641,316.5,352.1641,320.5" style="stroke: #A80036; stroke-width: 1.0;"/><text fill="#000000" font-family="sans-serif" font-size="13" lengthAdjust="spacingAndGlyphs" textLength="6" x="373.6018" y="316.8253">*</text><!--link Campaign to MKPosition--><path d="M217.2302,429.2 C218.8343,434.9681 220.3928,440.5718 221.872,445.8908 " fill="none" id="Campaign-MKPosition" style="stroke: #A80036; stroke-width: 1.0;"/><polygon fill="#A80036" points="213.6585,416.3571,211.4124,423.2095,216.8738,427.9183,219.1199,421.0659,213.6585,416.3571" style="stroke: #A80036; stroke-width: 1.0;"/><text fill="#000000" font-family="sans-serif" font-size="13" lengthAdjust="spacingAndGlyphs" textLength="6" x="213.461" y="435.3491">*</text><!--link Campaign to MKGroup--><path d="M363.6229,412.6752 C365.7609,413.7899 367.8873,414.8985 370,416 C476.6443,471.5985 513.8789,468.7163 610,541 C622.7586,550.5945 635.2182,562.956 645.5161,574.2528 " fill="none" id="Campaign-MKGroup" style="stroke: #A80036; stroke-width: 1.0;"/><polygon fill="#A80036" points="352.0915,406.6621,355.5622,412.983,362.7318,412.2104,359.2611,405.8895,352.0915,406.6621" style="stroke: #A80036; stroke-width: 1.0;"/><text fill="#000000" font-family="sans-serif" font-size="13" lengthAdjust="spacingAndGlyphs" textLength="95" x="599" y="494.5684">relevantGroups</text><text fill="#000000" font-family="sans-serif" font-size="13" lengthAdjust="spacingAndGlyphs" textLength="6" x="633.6413" y="563.9693">*</text><!--
@startuml

package knesset {

  class KnessetMember {
    name
    image
    imageCredit
    knessetWebPage
    gender
    party
    contactOptions
    isActive
  }

  class ContactOption {
    platform
    title
    details
    note
  }

  class Party {
    name
    officialWebPage
  }

  class MKGroup {
    name
  }

  KnessetMember "1" *- "0..*" ContactOption
  Party "1" *- "1..*" KnessetMember
  MKGroup "0..*" o- - "0..*" KnessetMember
  Party -|> MKGroup
}

package campaigns {
  class Campaign {
    title
    subtitle
    slogan
    officialWebPage
    socialMediaAccounts
    backgroundImage
    themeData
    cannedMessage:Map<[Position,Gender,Platform] → String>
    labelText:Map<[Position,Location,Gender] → String>
    relevantGroups
    contactEmail
  }

  enum Position {
    Against, Undecided, Neutral, For
  }

  class MKPosition {
    mk
    position
    campaign
  }

  class MKAction {
    type
    date
    title
    details
    link
  }

  MKPosition "*..0" - "1" Position
}

package users {
  class User {
    username
    hashedPasswd
    name
    role
  }
}

User "0..*" - - "*..0" Campaign: participates
MKPosition "1" - - "*..0" KnessetMember
MKAction "0..*" - -* "1" KnessetMember
MKAction "0..*" - -> "1" Position

Campaign *- "*" MKAction
Campaign *- "*" MKPosition
Campaign *- - "*" MKGroup: relevantGroups
@enduml

PlantUML version 1.2018.12(Sun Oct 21 13:15:15 IDT 2018)
(GPL source distribution)
Java Runtime: OpenJDK Runtime Environment
JVM: OpenJDK 64-Bit Server VM
Java Version: 11+28
Operating System: Mac OS X
OS Version: 10.14.1
Default Encoding: UTF-8
Language: en
Country: IL
--></g></svg>