<?xml version="1.0" encoding="UTF-8" standalone="no"?><svg xmlns="http://www.w3.org/2000/svg" xmlns:xlink="http://www.w3.org/1999/xlink" contentScriptType="application/ecmascript" contentStyleType="text/css" height="841px" preserveAspectRatio="none" style="width:852px;height:841px;" version="1.1" viewBox="0 0 852 841" width="852px" zoomAndPan="magnify"><defs><filter height="300%" id="f1so7ka4gg10oh" width="300%" x="-1" y="-1"><feGaussianBlur result="blurOut" stdDeviation="2.0"/><feColorMatrix in="blurOut" result="blurOut2" type="matrix" values="0 0 0 0 0 0 0 0 0 0 0 0 0 0 0 0 0 0 .4 0"/><feOffset dx="4.0" dy="4.0" in="blurOut2" result="blurOut3"/><feBlend in="SourceGraphic" in2="blurOut3" mode="normal"/></filter></defs><g><!--cluster knesset--><polygon fill="#FFFFFF" filter="url(#f1so7ka4gg10oh)" points="233,458,295,458,302,480.4883,653,480.4883,653,829,233,829,233,458" style="stroke: #000000; stroke-width: 1.5;"/><line style="stroke: #000000; stroke-width: 1.5;" x1="233" x2="302" y1="480.4883" y2="480.4883"/><text fill="#000000" font-family="sans-serif" font-size="14" font-weight="bold" lengthAdjust="spacingAndGlyphs" textLength="56" x="237" y="473.5352">knesset</text><!--cluster campaigns--><polygon fill="#FFFFFF" filter="url(#f1so7ka4gg10oh)" points="14,198,97,198,104,220.4883,830,220.4883,830,411,14,411,14,198" style="stroke: #000000; stroke-width: 1.5;"/><line style="stroke: #000000; stroke-width: 1.5;" x1="14" x2="104" y1="220.4883" y2="220.4883"/><text fill="#000000" font-family="sans-serif" font-size="14" font-weight="bold" lengthAdjust="spacingAndGlyphs" textLength="77" x="18" y="213.5352">campaigns</text><!--cluster users--><polygon fill="#FFFFFF" filter="url(#f1so7ka4gg10oh)" points="134,16,179,16,186,38.4883,240,38.4883,240,151,134,151,134,16" style="stroke: #000000; stroke-width: 1.5;"/><line style="stroke: #000000; stroke-width: 1.5;" x1="134" x2="186" y1="38.4883" y2="38.4883"/><text fill="#000000" font-family="sans-serif" font-size="14" font-weight="bold" lengthAdjust="spacingAndGlyphs" textLength="39" x="138" y="31.5352">users</text><!--class KnessetMember--><rect fill="#FEFECE" filter="url(#f1so7ka4gg10oh)" height="151.6406" id="KnessetMember" style="stroke: #A80036; stroke-width: 1.5;" width="125" x="371.5" y="669"/><ellipse cx="386.5" cy="685" fill="#ADD1B2" rx="11" ry="11" style="stroke: #A80036; stroke-width: 1.0;"/><path d="M389.4731,690.6431 Q388.8921,690.9419 388.2529,691.0913 Q387.6138,691.2407 386.9082,691.2407 Q384.4014,691.2407 383.0815,689.5889 Q381.7617,687.937 381.7617,684.8159 Q381.7617,681.6865 383.0815,680.0347 Q384.4014,678.3828 386.9082,678.3828 Q387.6138,678.3828 388.2612,678.5322 Q388.9087,678.6816 389.4731,678.9805 L389.4731,681.7031 Q388.8423,681.1221 388.2488,680.8523 Q387.6553,680.5825 387.0244,680.5825 Q385.6797,680.5825 384.9949,681.6492 Q384.3101,682.7158 384.3101,684.8159 Q384.3101,686.9077 384.9949,687.9744 Q385.6797,689.041 387.0244,689.041 Q387.6553,689.041 388.2488,688.7712 Q388.8423,688.5015 389.4731,687.9204 Z "/><text fill="#000000" font-family="sans-serif" font-size="12" lengthAdjust="spacingAndGlyphs" textLength="93" x="400.5" y="689.5352">KnessetMember</text><line style="stroke: #A80036; stroke-width: 1.5;" x1="372.5" x2="495.5" y1="701" y2="701"/><text fill="#000000" font-family="sans-serif" font-size="11" lengthAdjust="spacingAndGlyphs" textLength="29" x="377.5" y="715.6348">name</text><text fill="#000000" font-family="sans-serif" font-size="11" lengthAdjust="spacingAndGlyphs" textLength="32" x="377.5" y="728.5898">image</text><text fill="#000000" font-family="sans-serif" font-size="11" lengthAdjust="spacingAndGlyphs" textLength="65" x="377.5" y="741.5449">imageCredit</text><text fill="#000000" font-family="sans-serif" font-size="11" lengthAdjust="spacingAndGlyphs" textLength="88" x="377.5" y="754.5">knessetWebPage</text><text fill="#000000" font-family="sans-serif" font-size="11" lengthAdjust="spacingAndGlyphs" textLength="38" x="377.5" y="767.4551">gender</text><text fill="#000000" font-family="sans-serif" font-size="11" lengthAdjust="spacingAndGlyphs" textLength="28" x="377.5" y="780.4102">party</text><text fill="#000000" font-family="sans-serif" font-size="11" lengthAdjust="spacingAndGlyphs" textLength="83" x="377.5" y="793.3652">contactOptions</text><text fill="#000000" font-family="sans-serif" font-size="11" lengthAdjust="spacingAndGlyphs" textLength="42" x="377.5" y="806.3203">isActive</text><line style="stroke: #A80036; stroke-width: 1.5;" x1="372.5" x2="495.5" y1="812.6406" y2="812.6406"/><!--class ContactOption--><rect fill="#FEFECE" filter="url(#f1so7ka4gg10oh)" height="99.8203" id="ContactOption" style="stroke: #A80036; stroke-width: 1.5;" width="113" x="531.5" y="695"/><ellipse cx="546.5" cy="711" fill="#ADD1B2" rx="11" ry="11" style="stroke: #A80036; stroke-width: 1.0;"/><path d="M549.4731,716.6431 Q548.8921,716.9419 548.2529,717.0913 Q547.6138,717.2407 546.9082,717.2407 Q544.4014,717.2407 543.0815,715.5889 Q541.7617,713.937 541.7617,710.8159 Q541.7617,707.6865 543.0815,706.0347 Q544.4014,704.3828 546.9082,704.3828 Q547.6138,704.3828 548.2612,704.5322 Q548.9087,704.6816 549.4731,704.9805 L549.4731,707.7031 Q548.8423,707.1221 548.2488,706.8523 Q547.6553,706.5825 547.0244,706.5825 Q545.6797,706.5825 544.9949,707.6492 Q544.3101,708.7158 544.3101,710.8159 Q544.3101,712.9077 544.9949,713.9744 Q545.6797,715.041 547.0244,715.041 Q547.6553,715.041 548.2488,714.7712 Q548.8423,714.5015 549.4731,713.9204 Z "/><text fill="#000000" font-family="sans-serif" font-size="12" lengthAdjust="spacingAndGlyphs" textLength="81" x="560.5" y="715.5352">ContactOption</text><line style="stroke: #A80036; stroke-width: 1.5;" x1="532.5" x2="643.5" y1="727" y2="727"/><text fill="#000000" font-family="sans-serif" font-size="11" lengthAdjust="spacingAndGlyphs" textLength="46" x="537.5" y="741.6348">platform</text><text fill="#000000" font-family="sans-serif" font-size="11" lengthAdjust="spacingAndGlyphs" textLength="20" x="537.5" y="754.5898">title</text><text fill="#000000" font-family="sans-serif" font-size="11" lengthAdjust="spacingAndGlyphs" textLength="35" x="537.5" y="767.5449">details</text><text fill="#000000" font-family="sans-serif" font-size="11" lengthAdjust="spacingAndGlyphs" textLength="24" x="537.5" y="780.5">note</text><line style="stroke: #A80036; stroke-width: 1.5;" x1="532.5" x2="643.5" y1="786.8203" y2="786.8203"/><!--class Party--><rect fill="#FEFECE" filter="url(#f1so7ka4gg10oh)" height="73.9102" id="Party" style="stroke: #A80036; stroke-width: 1.5;" width="95" x="241.5" y="708"/><ellipse cx="271.8" cy="724" fill="#ADD1B2" rx="11" ry="11" style="stroke: #A80036; stroke-width: 1.0;"/><path d="M274.7731,729.6431 Q274.1921,729.9419 273.5529,730.0913 Q272.9138,730.2407 272.2082,730.2407 Q269.7014,730.2407 268.3815,728.5889 Q267.0617,726.937 267.0617,723.8159 Q267.0617,720.6865 268.3815,719.0347 Q269.7014,717.3828 272.2082,717.3828 Q272.9138,717.3828 273.5612,717.5322 Q274.2087,717.6816 274.7731,717.9805 L274.7731,720.7031 Q274.1423,720.1221 273.5488,719.8523 Q272.9553,719.5825 272.3244,719.5825 Q270.9797,719.5825 270.2949,720.6492 Q269.6101,721.7158 269.6101,723.8159 Q269.6101,725.9077 270.2949,726.9744 Q270.9797,728.041 272.3244,728.041 Q272.9553,728.041 273.5488,727.7712 Q274.1423,727.5015 274.7731,726.9204 Z "/><text fill="#000000" font-family="sans-serif" font-size="12" lengthAdjust="spacingAndGlyphs" textLength="29" x="289.2" y="728.5352">Party</text><line style="stroke: #A80036; stroke-width: 1.5;" x1="242.5" x2="335.5" y1="740" y2="740"/><text fill="#000000" font-family="sans-serif" font-size="11" lengthAdjust="spacingAndGlyphs" textLength="29" x="247.5" y="754.6348">name</text><text fill="#000000" font-family="sans-serif" font-size="11" lengthAdjust="spacingAndGlyphs" textLength="83" x="247.5" y="767.5898">officialWebPage</text><line style="stroke: #A80036; stroke-width: 1.5;" x1="242.5" x2="335.5" y1="773.9102" y2="773.9102"/><!--class MKGroup--><rect fill="#FEFECE" filter="url(#f1so7ka4gg10oh)" height="60.9551" id="MKGroup" style="stroke: #A80036; stroke-width: 1.5;" width="86" x="275" y="485"/><ellipse cx="290" cy="501" fill="#ADD1B2" rx="11" ry="11" style="stroke: #A80036; stroke-width: 1.0;"/><path d="M292.9731,506.6431 Q292.3921,506.9419 291.7529,507.0913 Q291.1138,507.2407 290.4082,507.2407 Q287.9014,507.2407 286.5815,505.5889 Q285.2617,503.937 285.2617,500.8159 Q285.2617,497.6865 286.5815,496.0347 Q287.9014,494.3828 290.4082,494.3828 Q291.1138,494.3828 291.7612,494.5322 Q292.4087,494.6816 292.9731,494.9805 L292.9731,497.7031 Q292.3423,497.1221 291.7488,496.8523 Q291.1553,496.5825 290.5244,496.5825 Q289.1797,496.5825 288.4949,497.6492 Q287.8101,498.7158 287.8101,500.8159 Q287.8101,502.9077 288.4949,503.9744 Q289.1797,505.041 290.5244,505.041 Q291.1553,505.041 291.7488,504.7712 Q292.3423,504.5015 292.9731,503.9204 Z "/><text fill="#000000" font-family="sans-serif" font-size="12" lengthAdjust="spacingAndGlyphs" textLength="54" x="304" y="505.5352">MKGroup</text><line style="stroke: #A80036; stroke-width: 1.5;" x1="276" x2="360" y1="517" y2="517"/><text fill="#000000" font-family="sans-serif" font-size="11" lengthAdjust="spacingAndGlyphs" textLength="29" x="281" y="531.6348">name</text><line style="stroke: #A80036; stroke-width: 1.5;" x1="276" x2="360" y1="537.9551" y2="537.9551"/><!--class Campaign--><rect fill="#FEFECE" filter="url(#f1so7ka4gg10oh)" height="177.5508" id="Campaign" style="stroke: #A80036; stroke-width: 1.5;" width="330" x="22" y="225"/><ellipse cx="153.75" cy="241" fill="#ADD1B2" rx="11" ry="11" style="stroke: #A80036; stroke-width: 1.0;"/><path d="M156.7231,246.6431 Q156.1421,246.9419 155.5029,247.0913 Q154.8638,247.2407 154.1582,247.2407 Q151.6514,247.2407 150.3315,245.5889 Q149.0117,243.937 149.0117,240.8159 Q149.0117,237.6865 150.3315,236.0347 Q151.6514,234.3828 154.1582,234.3828 Q154.8638,234.3828 155.5112,234.5322 Q156.1587,234.6816 156.7231,234.9805 L156.7231,237.7031 Q156.0923,237.1221 155.4988,236.8523 Q154.9053,236.5825 154.2744,236.5825 Q152.9297,236.5825 152.2449,237.6492 Q151.5601,238.7158 151.5601,240.8159 Q151.5601,242.9077 152.2449,243.9744 Q152.9297,245.041 154.2744,245.041 Q154.9053,245.041 155.4988,244.7712 Q156.0923,244.5015 156.7231,243.9204 Z "/><text fill="#000000" font-family="sans-serif" font-size="12" lengthAdjust="spacingAndGlyphs" textLength="58" x="174.25" y="245.5352">Campaign</text><line style="stroke: #A80036; stroke-width: 1.5;" x1="23" x2="351" y1="257" y2="257"/><text fill="#000000" font-family="sans-serif" font-size="11" lengthAdjust="spacingAndGlyphs" textLength="20" x="28" y="271.6348">title</text><text fill="#000000" font-family="sans-serif" font-size="11" lengthAdjust="spacingAndGlyphs" textLength="40" x="28" y="284.5898">subtitle</text><text fill="#000000" font-family="sans-serif" font-size="11" lengthAdjust="spacingAndGlyphs" textLength="36" x="28" y="297.5449">slogan</text><text fill="#000000" font-family="sans-serif" font-size="11" lengthAdjust="spacingAndGlyphs" textLength="83" x="28" y="310.5">officialWebPage</text><text fill="#000000" font-family="sans-serif" font-size="11" lengthAdjust="spacingAndGlyphs" textLength="97" x="28" y="323.4551">backgroundImage</text><text fill="#000000" font-family="sans-serif" font-size="11" lengthAdjust="spacingAndGlyphs" textLength="57" x="28" y="336.4102">themeData</text><text fill="#000000" font-family="sans-serif" font-size="11" lengthAdjust="spacingAndGlyphs" textLength="318" x="28" y="349.3652">cannedMessage:Map&lt;[Position,Gender,Platform] → String&gt;</text><text fill="#000000" font-family="sans-serif" font-size="11" lengthAdjust="spacingAndGlyphs" textLength="283" x="28" y="362.3203">labelText:Map&lt;[Position,Location,Gender] → String&gt;</text><text fill="#000000" font-family="sans-serif" font-size="11" lengthAdjust="spacingAndGlyphs" textLength="83" x="28" y="375.2754">relevantGroups</text><text fill="#000000" font-family="sans-serif" font-size="11" lengthAdjust="spacingAndGlyphs" textLength="68" x="28" y="388.2305">contactEmail</text><line style="stroke: #A80036; stroke-width: 1.5;" x1="23" x2="351" y1="394.5508" y2="394.5508"/><!--class Position--><rect fill="#FEFECE" filter="url(#f1so7ka4gg10oh)" height="60.9551" id="Position" style="stroke: #A80036; stroke-width: 1.5;" width="185" x="516.5" y="283.5"/><ellipse cx="582.75" cy="299.5" fill="#EB937F" rx="11" ry="11" style="stroke: #A80036; stroke-width: 1.0;"/><path d="M586.8643,305.5 L579.1445,305.5 L579.1445,293.1069 L586.8643,293.1069 L586.8643,295.2651 L581.5933,295.2651 L581.5933,297.938 L586.3662,297.938 L586.3662,300.0962 L581.5933,300.0962 L581.5933,303.3418 L586.8643,303.3418 Z "/><text fill="#000000" font-family="sans-serif" font-size="12" lengthAdjust="spacingAndGlyphs" textLength="44" x="603.25" y="304.0352">Position</text><line style="stroke: #A80036; stroke-width: 1.5;" x1="517.5" x2="700.5" y1="315.5" y2="315.5"/><text fill="#000000" font-family="sans-serif" font-size="11" lengthAdjust="spacingAndGlyphs" textLength="173" x="522.5" y="330.1348">Against, Undecided, Neutral, For</text><line style="stroke: #A80036; stroke-width: 1.5;" x1="517.5" x2="700.5" y1="336.4551" y2="336.4551"/><!--class MKPosition--><rect fill="#FEFECE" filter="url(#f1so7ka4gg10oh)" height="86.8652" id="MKPosition" style="stroke: #A80036; stroke-width: 1.5;" width="94" x="387" y="270.5"/><ellipse cx="402" cy="286.5" fill="#ADD1B2" rx="11" ry="11" style="stroke: #A80036; stroke-width: 1.0;"/><path d="M404.9731,292.1431 Q404.3921,292.4419 403.7529,292.5913 Q403.1138,292.7407 402.4082,292.7407 Q399.9014,292.7407 398.5815,291.0889 Q397.2617,289.437 397.2617,286.3159 Q397.2617,283.1865 398.5815,281.5347 Q399.9014,279.8828 402.4082,279.8828 Q403.1138,279.8828 403.7612,280.0322 Q404.4087,280.1816 404.9731,280.4805 L404.9731,283.2031 Q404.3423,282.6221 403.7488,282.3523 Q403.1553,282.0825 402.5244,282.0825 Q401.1797,282.0825 400.4949,283.1492 Q399.8101,284.2158 399.8101,286.3159 Q399.8101,288.4077 400.4949,289.4744 Q401.1797,290.541 402.5244,290.541 Q403.1553,290.541 403.7488,290.2712 Q404.3423,290.0015 404.9731,289.4204 Z "/><text fill="#000000" font-family="sans-serif" font-size="12" lengthAdjust="spacingAndGlyphs" textLength="62" x="416" y="291.0352">MKPosition</text><line style="stroke: #A80036; stroke-width: 1.5;" x1="388" x2="480" y1="302.5" y2="302.5"/><text fill="#000000" font-family="sans-serif" font-size="11" lengthAdjust="spacingAndGlyphs" textLength="16" x="393" y="317.1348">mk</text><text fill="#000000" font-family="sans-serif" font-size="11" lengthAdjust="spacingAndGlyphs" textLength="44" x="393" y="330.0898">position</text><text fill="#000000" font-family="sans-serif" font-size="11" lengthAdjust="spacingAndGlyphs" textLength="59" x="393" y="343.0449">campgaign</text><line style="stroke: #A80036; stroke-width: 1.5;" x1="388" x2="480" y1="349.3652" y2="349.3652"/><!--class MKAction--><rect fill="#FEFECE" filter="url(#f1so7ka4gg10oh)" height="112.7754" id="MKAction" style="stroke: #A80036; stroke-width: 1.5;" width="85" x="736.5" y="257.5"/><ellipse cx="751.5" cy="273.5" fill="#ADD1B2" rx="11" ry="11" style="stroke: #A80036; stroke-width: 1.0;"/><path d="M754.4731,279.1431 Q753.8921,279.4419 753.2529,279.5913 Q752.6138,279.7407 751.9082,279.7407 Q749.4014,279.7407 748.0815,278.0889 Q746.7617,276.437 746.7617,273.3159 Q746.7617,270.1865 748.0815,268.5347 Q749.4014,266.8828 751.9082,266.8828 Q752.6138,266.8828 753.2612,267.0322 Q753.9087,267.1816 754.4731,267.4805 L754.4731,270.2031 Q753.8423,269.6221 753.2488,269.3523 Q752.6553,269.0825 752.0244,269.0825 Q750.6797,269.0825 749.9949,270.1492 Q749.3101,271.2158 749.3101,273.3159 Q749.3101,275.4077 749.9949,276.4744 Q750.6797,277.541 752.0244,277.541 Q752.6553,277.541 753.2488,277.2712 Q753.8423,277.0015 754.4731,276.4204 Z "/><text fill="#000000" font-family="sans-serif" font-size="12" lengthAdjust="spacingAndGlyphs" textLength="53" x="765.5" y="278.0352">MKAction</text><line style="stroke: #A80036; stroke-width: 1.5;" x1="737.5" x2="820.5" y1="289.5" y2="289.5"/><text fill="#000000" font-family="sans-serif" font-size="11" lengthAdjust="spacingAndGlyphs" textLength="23" x="742.5" y="304.1348">type</text><text fill="#000000" font-family="sans-serif" font-size="11" lengthAdjust="spacingAndGlyphs" textLength="23" x="742.5" y="317.0898">date</text><text fill="#000000" font-family="sans-serif" font-size="11" lengthAdjust="spacingAndGlyphs" textLength="20" x="742.5" y="330.0449">title</text><text fill="#000000" font-family="sans-serif" font-size="11" lengthAdjust="spacingAndGlyphs" textLength="35" x="742.5" y="343">details</text><text fill="#000000" font-family="sans-serif" font-size="11" lengthAdjust="spacingAndGlyphs" textLength="19" x="742.5" y="355.9551">link</text><line style="stroke: #A80036; stroke-width: 1.5;" x1="737.5" x2="820.5" y1="362.2754" y2="362.2754"/><!--class User--><rect fill="#FEFECE" filter="url(#f1so7ka4gg10oh)" height="99.8203" id="User" style="stroke: #A80036; stroke-width: 1.5;" width="90" x="142" y="43"/><ellipse cx="171.4" cy="59" fill="#ADD1B2" rx="11" ry="11" style="stroke: #A80036; stroke-width: 1.0;"/><path d="M174.3731,64.6431 Q173.7921,64.9419 173.1529,65.0913 Q172.5138,65.2407 171.8082,65.2407 Q169.3014,65.2407 167.9815,63.5889 Q166.6617,61.937 166.6617,58.8159 Q166.6617,55.6865 167.9815,54.0347 Q169.3014,52.3828 171.8082,52.3828 Q172.5138,52.3828 173.1612,52.5322 Q173.8087,52.6816 174.3731,52.9805 L174.3731,55.7031 Q173.7423,55.1221 173.1488,54.8523 Q172.5553,54.5825 171.9244,54.5825 Q170.5797,54.5825 169.8949,55.6492 Q169.2101,56.7158 169.2101,58.8159 Q169.2101,60.9077 169.8949,61.9744 Q170.5797,63.041 171.9244,63.041 Q172.5553,63.041 173.1488,62.7712 Q173.7423,62.5015 174.3731,61.9204 Z "/><text fill="#000000" font-family="sans-serif" font-size="12" lengthAdjust="spacingAndGlyphs" textLength="26" x="188.6" y="63.5352">User</text><line style="stroke: #A80036; stroke-width: 1.5;" x1="143" x2="231" y1="75" y2="75"/><text fill="#000000" font-family="sans-serif" font-size="11" lengthAdjust="spacingAndGlyphs" textLength="53" x="148" y="89.6348">username</text><text fill="#000000" font-family="sans-serif" font-size="11" lengthAdjust="spacingAndGlyphs" textLength="78" x="148" y="102.5898">hashedPasswd</text><text fill="#000000" font-family="sans-serif" font-size="11" lengthAdjust="spacingAndGlyphs" textLength="29" x="148" y="115.5449">name</text><text fill="#000000" font-family="sans-serif" font-size="11" lengthAdjust="spacingAndGlyphs" textLength="21" x="148" y="128.5">role</text><line style="stroke: #A80036; stroke-width: 1.5;" x1="143" x2="231" y1="134.8203" y2="134.8203"/><!--link KnessetMember to ContactOption--><path d="M509.8255,745 C516.9533,745 524.081,745 531.2087,745 " fill="none" id="KnessetMember-ContactOption" style="stroke: #A80036; stroke-width: 1.0;"/><polygon fill="#A80036" points="496.5625,745,502.5625,749,508.5625,745,502.5625,741,496.5625,745" style="stroke: #A80036; stroke-width: 1.0;"/><text fill="#000000" font-family="sans-serif" font-size="13" lengthAdjust="spacingAndGlyphs" textLength="8" x="504.6748" y="741.6951">1</text><text fill="#000000" font-family="sans-serif" font-size="13" lengthAdjust="spacingAndGlyphs" textLength="22" x="501.3703" y="741.7295">0..*</text><!--link Party to KnessetMember--><path d="M349.8351,745 C356.9596,745 364.0841,745 371.2086,745 " fill="none" id="Party-KnessetMember" style="stroke: #A80036; stroke-width: 1.0;"/><polygon fill="#A80036" points="336.5781,745,342.5781,749,348.5781,745,342.5781,741,336.5781,745" style="stroke: #A80036; stroke-width: 1.0;"/><text fill="#000000" font-family="sans-serif" font-size="13" lengthAdjust="spacingAndGlyphs" textLength="8" x="344.476" y="741.4506">1</text><text fill="#000000" font-family="sans-serif" font-size="13" lengthAdjust="spacingAndGlyphs" textLength="22" x="344.4807" y="741.4652">1..*</text><!--link MKGroup to KnessetMember--><path d="M339.5457,558.1271 C355.2095,589.1171 376.8391,631.9101 395.448,668.7268 " fill="none" id="MKGroup-KnessetMember" style="stroke: #A80036; stroke-width: 1.0;"/><polygon fill="#FFFFFF" points="333.6443,546.4514,332.781,553.6106,339.0574,557.1611,339.9208,550.0019,333.6443,546.4514" style="stroke: #A80036; stroke-width: 1.0;"/><text fill="#000000" font-family="sans-serif" font-size="13" lengthAdjust="spacingAndGlyphs" textLength="22" x="312.5586" y="566.6249">0..*</text><text fill="#000000" font-family="sans-serif" font-size="13" lengthAdjust="spacingAndGlyphs" textLength="22" x="368.7251" y="658.3425">0..*</text><!--link MKPosition to Position--><path d="M481.168,314 C492.8193,314 504.4707,314 516.122,314 " fill="none" id="MKPosition-Position" style="stroke: #A80036; stroke-width: 1.0;"/><ellipse cx="494.4411" cy="305.8781" fill="#000000" rx="2.5" ry="2.5" style="stroke: #000000; stroke-width: 0.0;"/><text fill="#000000" font-family="sans-serif" font-size="13" lengthAdjust="spacingAndGlyphs" textLength="16" x="499.9411" y="310.6359">..0</text><text fill="#000000" font-family="sans-serif" font-size="13" lengthAdjust="spacingAndGlyphs" textLength="8" x="500.402" y="310.9849">1</text><!--link User to Campaign--><path d="M187,143.1483 C187,167.3452 187,197.1116 187,224.9816 " fill="none" id="User-Campaign" style="stroke: #A80036; stroke-width: 1.0;"/><text fill="#000000" font-family="sans-serif" font-size="13" lengthAdjust="spacingAndGlyphs" textLength="74" x="188" y="186.5684">participates</text><text fill="#000000" font-family="sans-serif" font-size="13" lengthAdjust="spacingAndGlyphs" textLength="22" x="163.5219" y="163.4961">0..*</text><ellipse cx="164.3398" cy="209.5302" fill="#000000" rx="2.5" ry="2.5" style="stroke: #000000; stroke-width: 0.0;"/><text fill="#000000" font-family="sans-serif" font-size="13" lengthAdjust="spacingAndGlyphs" textLength="16" x="169.8398" y="214.2881">..0</text><!--link MKPosition to KnessetMember--><path d="M434,357.6984 C434,430.6756 434,578.2429 434,668.6729 " fill="none" id="MKPosition-KnessetMember" style="stroke: #A80036; stroke-width: 1.0;"/><text fill="#000000" font-family="sans-serif" font-size="13" lengthAdjust="spacingAndGlyphs" textLength="8" x="425.4125" y="377.8192">1</text><text fill="#000000" font-family="sans-serif" font-size="13" lengthAdjust="spacingAndGlyphs" textLength="8" x="425.6188" y="658.2834">1</text><!--link MKAction to KnessetMember--><path d="M745.9942,370.6092 C737.5781,384.1077 728.2767,398.2815 719,411 C648.2514,507.9974 556.6804,612.066 496.6877,677.7901 " fill="none" id="MKAction-KnessetMember" style="stroke: #A80036; stroke-width: 1.0;"/><text fill="#000000" font-family="sans-serif" font-size="13" lengthAdjust="spacingAndGlyphs" textLength="8" x="733.4841" y="391.0235">1</text><text fill="#000000" font-family="sans-serif" font-size="13" lengthAdjust="spacingAndGlyphs" textLength="8" x="504.3985" y="666.7589">1</text><!--link Campaign to MKAction--><path d="M300.7623,217.471 C327.612,199.8086 357.2722,183.9811 387.5,174.5 C454.0795,153.6169 639.1422,143.188 701.5,174.5 C733.5631,190.6 753.0191,226.1085 764.4181,257.2697 " fill="none" id="Campaign-MKAction" style="stroke: #A80036; stroke-width: 1.0;"/><polygon fill="#A80036" points="289.8303,224.8642,297.0412,224.8164,299.7706,218.1418,292.5596,218.1896,289.8303,224.8642" style="stroke: #A80036; stroke-width: 1.0;"/><text fill="#000000" font-family="sans-serif" font-size="13" lengthAdjust="spacingAndGlyphs" textLength="6" x="756.1654" y="246.6428">*</text><!--link Campaign to MKPosition--><path d="M365.6376,314 C372.7137,314 379.7898,314 386.8659,314 " fill="none" id="Campaign-MKPosition" style="stroke: #A80036; stroke-width: 1.0;"/><polygon fill="#A80036" points="352.4707,314,358.4707,318,364.4707,314,358.4707,310,352.4707,314" style="stroke: #A80036; stroke-width: 1.0;"/><text fill="#000000" font-family="sans-serif" font-size="13" lengthAdjust="spacingAndGlyphs" textLength="6" x="372.8758" y="310.4085">*</text><!--link Campaign to MKGroup--><path d="M252.1924,414.2768 C268.9369,440.0327 285.7081,465.8297 298.1289,484.935 " fill="none" id="Campaign-MKGroup" style="stroke: #A80036; stroke-width: 1.0;"/><polygon fill="#A80036" points="245.0306,403.2608,244.9474,410.4714,251.5714,413.3215,251.6546,406.1109,245.0306,403.2608" style="stroke: #A80036; stroke-width: 1.0;"/><text fill="#000000" font-family="sans-serif" font-size="13" lengthAdjust="spacingAndGlyphs" textLength="95" x="272" y="446.5684">relevantGroups</text><text fill="#000000" font-family="sans-serif" font-size="13" lengthAdjust="spacingAndGlyphs" textLength="6" x="287.1258" y="474.2155">*</text><!--
@startuml

package knesset {

  class KnessetMember {
    name
    image
    imageCredit
    knessetWebPage
    gender
    party
    contactOptions
    isActive
  }

  class ContactOption {
    platform
    title
    details
    note
  }

  class Party {
    name
    officialWebPage
  }

  class MKGroup {
    name
  }

  KnessetMember "1" *- "0..*" ContactOption
  Party "1" *- "1..*" KnessetMember
  MKGroup "0..*" o- - "0..*" KnessetMember

}

package campaigns {
  class Campaign {
    title
    subtitle
    slogan
    officialWebPage
    backgroundImage
    themeData
    cannedMessage:Map<[Position,Gender,Platform] → String>
    labelText:Map<[Position,Location,Gender] → String>
    relevantGroups
    contactEmail
  }

  enum Position {
    Against, Undecided, Neutral, For
  }

  class MKPosition {
    mk
    position
    campgaign
  }

  class MKAction {
    type
    date
    title
    details
    link
  }

  MKPosition "*..0" - "1" Position
}

package users {
  class User {
    username
    hashedPasswd
    name
    role
  }
}

User "0..*" - - "*..0" Campaign: participates
MKPosition "1" - - "1" KnessetMember
MKAction "1" - - "1" KnessetMember

Campaign *- "*" MKAction
Campaign *- "*" MKPosition
Campaign *- - "*" MKGroup: relevantGroups
@enduml

PlantUML version 1.2018.10(Sat Aug 25 20:02:59 IDT 2018)
(GPL source distribution)
Java Runtime: Java(TM) SE Runtime Environment
JVM: Java HotSpot(TM) 64-Bit Server VM
Java Version: 9+181
Operating System: Mac OS X
OS Version: 10.13.6
Default Encoding: UTF-8
Language: en
Country: IL
--></g></svg>